<svg width="266" height="104" viewBox="0 0 266 104" xmlns="http://www.w3.org/2000/svg"><title>Logo</title><defs><filter x="-20%" y="-20%" width="140%" height="140%" filterUnits="objectBoundingBox" id="a"><feOffset dx="3" dy="3" in="SourceAlpha" result="shadowOffsetOuter1"/><feGaussianBlur in="shadowOffsetOuter1" result="shadowBlurOuter1"/><feColorMatrix values="0 0 0 0 0 0 0 0 0 0 0 0 0 0 0 0 0 0 0.7 0" in="shadowBlurOuter1" result="shadowMatrixOuter1"/><feMerge><feMergeNode in="shadowMatrixOuter1"/><feMergeNode in="SourceGraphic"/></feMerge></filter><filter x="-20%" y="-20%" width="140%" height="140%" filterUnits="objectBoundingBox" id="b"><feOffset dx="3" dy="3" in="SourceAlpha" result="shadowOffsetOuter1"/><feGaussianBlur in="shadowOffsetOuter1" result="shadowBlurOuter1"/><feColorMatrix values="0 0 0 0 0 0 0 0 0 0 0 0 0 0 0 0 0 0 0.7 0" in="shadowBlurOuter1" result="shadowMatrixOuter1"/><feMerge><feMergeNode in="shadowMatrixOuter1"/><feMergeNode in="SourceGraphic"/></feMerge></filter></defs><g fill="none" fill-rule="evenodd"><path fill="#CA3535" filter="url(#a)" d="M0 0h263v101H0z"/><path d="M199.01 71.354c-2.1 6.46-5.898 10.97-11.39 13.533-8.896 4.15-17.887 4.15-26.974 0-5.62-2.566-9.5-7.086-11.646-13.56V84.29h-13.115l-.04-40.784-3.935 8.075h-13.156l1.926-3.71-6.803-.082-1.147-2.202V88H99.738V28.95L74.435 88h-15.83L72.42 56.09 60.402 31.445H42.67V89H27.896V31.444H13V15h48v3.316h6.94L78.71 41.49 91.46 12H107l-2.945 6.873h6.748l12.5 23.858L138.55 13H149v15.34c2.11-6.37 5.89-10.784 11.337-13.238 9.183-4.136 18.373-4.136 27.57 0 6.113 2.75 10.085 7.957 11.917 15.62h6.36l-3.982-12.29h13.587l15.063 36.382V12h15.106l.04 76h-11.945l-20.36-37.447-.123 34.415-14.572-.04.01-13.574zm-36.97-27.437v11.656c-.502 11.683 3.77 17.825 12.82 18.427 7.236-.055 10.925-6.21 11.064-18.468V45.19c.696-12.395-3.396-18.455-12.276-18.18-7.49.628-11.358 6.264-11.61 16.907z" fill="#F7F7F7" filter="url(#b)"/></g></svg>